<?xml version="1.0" encoding="utf-8"?>
<!-- Generator: Adobe Illustrator 25.4.1, SVG Export Plug-In . SVG Version: 6.00 Build 0)  -->
<svg version="1.1" id="Croner-i_Logo_2020" xmlns="http://www.w3.org/2000/svg" xmlns:xlink="http://www.w3.org/1999/xlink" x="0px"
	 y="0px" viewBox="0 0 740.13 181.48" style="enable-background:new 0 0 740.13 181.48;" xml:space="preserve">
<style type="text/css">
	.st0{display:none;}
	.st1{display:inline;fill:#FFFFFF;}
	.st2{display:inline;}
	.st3{clip-path:url(#App_shape_00000095314981166012814730000012047988431685025976_);fill:#D31A2B;}
	.st4{clip-path:url(#App_shape_00000095314981166012814730000012047988431685025976_);fill:#20211E;}
	.st5{clip-path:url(#App_shape_00000095314981166012814730000012047988431685025976_);fill:#DE9D00;}
	.st6{clip-path:url(#App_shape_00000095314981166012814730000012047988431685025976_);fill:#F9B036;}
	.st7{clip-path:url(#App_shape_00000095314981166012814730000012047988431685025976_);fill:#0070B3;}
	.st8{clip-path:url(#App_shape_00000095314981166012814730000012047988431685025976_);fill:#005492;}
	.st9{clip-path:url(#App_shape_00000095314981166012814730000012047988431685025976_);fill:#A81127;}
	.st10{clip-path:url(#App_shape_00000095314981166012814730000012047988431685025976_);fill:#7B2182;}
	.st11{clip-path:url(#App_shape_00000095314981166012814730000012047988431685025976_);fill:#702A72;}
</style>
<g class="st0">
	<path class="st1" d="M517.86,113.27c-43.42,0-86.84,0-130.26,0c0.79-0.26,1.57-0.57,2.38-0.76c21.9-5.21,31.92-29.98,19.26-48.18
		c-8.08-11.62-19.71-15.49-33.5-13.83c-14.34,1.73-26.43,13.52-28.04,27.34c-1.72,14.73,7.05,28.58,21.27,33.57
		c1.89,0.66,3.82,1.24,5.73,1.86c-38.05,0-76.09,0-114.14,0c4.19-1.51,8.57-2.65,12.54-4.61c10.8-5.33,16.95-19.5,15.31-31.08
		c-5.29-0.69-5.22-0.68-5.89,4.4c-0.3,2.32-0.78,4.64-1.45,6.88c-3.46,11.66-12.52,18.37-24.85,18.53
		c-12.06,0.15-20.14-5.82-23.98-17.9c-3.4-10.7-3.36-21.71-2.22-32.68c0.52-5.04,1.67-10.15,3.44-14.89
		c4.05-10.82,12.73-15.24,24.15-13c6.49,1.28,11.51,4.85,14.92,10.3c2.64,4.23,4.73,8.82,6.82,13.37c1.79,3.91,1.98,4.14,6.61,2.94
		c0-10.16,0-20.36,0-30.59c-3.08-0.84-5.7-0.67-7.53,2.09c-1.59,2.4-3.26,2.53-5.86,1.15c-9.75-5.17-20.05-7.41-31.08-4.91
		c-23.69,5.38-36.29,27.73-35.95,45.07c0.32,16.26,8.61,35.13,28.75,42.13c3.31,1.15,6.76,1.87,10.15,2.79c-13.11,0-26.22,0-39.34,0
		c0-31.41,0-62.82,0-94.23c165.3,0,330.6,0,495.9,0c0,29.27,0,58.55,0,87.82c-7.36-1.01-10.37,0.35-10.2-12.01
		c0.19-13.66,0.05-27.32,0.03-40.98c0-1.22-0.12-2.44-0.17-3.28c-10.15,0-19.86,0-29.57,0c0,1.95,0,3.39,0,4.87
		c1.59,0.21,2.97,0.34,4.33,0.57c3.97,0.66,5.76,2.16,5.81,6.02c0.17,12.69,0.17,25.39,0,38.09c-0.05,3.95-2,5.57-6.07,6.16
		c-1.46,0.21-2.93,0.35-4.51,0.54c0,1.78,0,3.33,0,5.16c13.56,0,26.94,0,40.32,0c-0.21,0.43-0.35,1.14-0.66,1.22
		c-0.7,0.18-1.49,0.06-2.24,0.06c-55.78,0-111.56,0-167.34,0c0.8-0.25,1.6-0.53,2.41-0.74c8.57-2.16,14.4-7.49,18.36-15.4
		c-1.46-0.88-2.72-1.64-3.37-2.04c-4.33,3.56-8.03,7.35-12.41,10.04c-6.32,3.88-14.06,2.91-18.44-1.8c-5.5-5.9-6-13.28-5.97-21.24
		c13.75,0,27.1,0,40.43,0c0.66-19.26-12.14-34.6-32.92-31.68c-14.83,2.08-26.54,13.56-28.37,28.55c-1.62,13.26,7.51,27.33,21,32.3
		C513.56,112.04,515.73,112.61,517.86,113.27z M454.36,106.9c-0.76-0.15-1.37-0.32-1.99-0.39c-7.05-0.83-8.1-2-8.11-9.16
		c-0.01-6.62-0.04-13.25,0.01-19.87c0.05-6.04,1.73-11.61,5.48-16.43c2.52-3.24,5.88-4.52,8.7-3.41c3.51,1.39,3.48,4.5,3.48,7.55
		c0,14.32,0,28.63,0,42.95c0,1.14,0,2.29,0,3.59c9.44,0,18.49,0,28.33,0c-1.54-1.81,1.27-4.39-2.2-5.22
		c-6.53-1.56-7.01-2.16-7.02-8.81c-0.01-9.94,0.08-19.87-0.04-29.8c-0.11-9.2-5.01-15.7-12.88-17.28
		c-7.76-1.56-14.73,0.07-20.57,5.57c-1.29,1.21-2.4,2.6-3.6,3.91c-0.28-0.13-0.56-0.26-0.83-0.39c0-2.58,0-5.16,0-7.51
		c-9.27,0-18.1,0-26.95,0c0,1.85,0,3.2,0,4.62c1.11,0.16,2.06,0.3,3.01,0.45c4.31,0.64,5.85,2.15,5.89,6.54
		c0.1,11.96,0.1,23.93,0,35.89c-0.04,4.48-1.71,6.1-6.15,6.68c-1.03,0.13-2.05,0.31-2.97,0.45c0,1.86,0,3.4,0,4.84
		c12.98,0,25.69,0,38.41,0C454.36,109.92,454.36,108.46,454.36,106.9z M329.42,58.46c0.24,0.18,0.47,0.35,0.71,0.53
		c0,1.06-0.01,2.12,0,3.18c0.06,5.42,2.91,8.69,7.91,9.1c5.15,0.43,9.21-2.7,10.12-7.81c1.06-5.92-2.49-11.44-8.41-12.9
		c-6.35-1.57-11.43,0.75-15.39,5.58c-1.97,2.41-3.5,5.17-5.71,8.5c0-4.76,0-8.72,0-12.49c-9.23,0-18.06,0-27.02,0
		c0,1.8,0,3.14,0,4.6c0.76,0.13,1.37,0.27,1.99,0.35c6.63,0.87,7.68,2.05,7.69,8.85c0.02,10.25,0.01,20.49,0,30.74
		c0,8.16-0.44,8.65-8.65,9.92c-0.31,0.05-0.6,0.21-1.01,0.36c0,1.54,0,3.08,0,4.81c13.33,0,26.48,0,39.77,0c0-1.78,0-3.39,0-5.05
		c-2.07-0.21-3.89-0.31-5.69-0.59c-3.2-0.49-5.53-2.25-5.75-5.54c-0.83-12.13-0.31-24.13,4.95-35.41
		C326.05,62.78,327.9,60.7,329.42,58.46z M553.82,106.82c0,1.73,0,3.27,0,4.85c13.43,0,26.65,0,39.88,0c0-1.76,0-3.23,0-4.88
		c-1.92-0.21-3.73-0.34-5.52-0.61c-3.79-0.57-5.75-2.17-6.04-5.97c-0.93-12.15-0.16-24.13,5.13-35.38c1.12-2.38,3.02-4.4,4.57-6.59
		c0.61,1.37,0.45,2.3,0.41,3.24c-0.26,5.33,2.52,9,7.3,9.67c5.38,0.75,9.48-2.09,10.67-7.38c1.75-7.83-5.03-14.74-13.36-13.63
		c-5.71,0.75-9.48,4.18-12.45,8.74c-1.05,1.61-1.98,3.31-2.96,4.97c-0.2-0.07-0.41-0.13-0.61-0.2c0-3.9,0-7.8,0-11.52
		c-9.17,0-18.02,0-26.93,0c-0.13,1.04-0.26,1.66-0.27,2.28c0,0.73,0.11,1.46,0.18,2.29c0.71,0.15,1.32,0.31,1.94,0.39
		c6.62,0.89,7.74,2.15,7.75,8.86c0.02,10.99,0.05,21.99-0.02,32.98c-0.03,5.2-1.67,6.88-6.77,7.48
		C555.78,106.52,554.84,106.67,553.82,106.82z M617.27,89.37c11.09,0,21.85,0,32.66,0c0-4.26,0-8.32,0-12.32
		c-11.07,0-21.82,0-32.66,0C617.27,81.23,617.27,85.15,617.27,89.37z M690.81,30.83c0-6.21-4.85-11.01-11.02-10.91
		c-5.97,0.09-10.82,4.97-10.84,10.89c-0.02,5.96,4.78,10.77,10.81,10.85C686.03,41.74,690.81,37.06,690.81,30.83z"/>
	<path class="st2" d="M244.44,113.27c-3.39-0.92-6.84-1.64-10.15-2.79c-20.14-7-28.43-25.88-28.75-42.13
		c-0.34-17.34,12.26-39.69,35.95-45.07c11.03-2.5,21.33-0.26,31.08,4.91c2.6,1.38,4.27,1.25,5.86-1.15
		c1.83-2.77,4.44-2.94,7.53-2.09c0,10.23,0,20.43,0,30.59c-4.62,1.2-4.81,0.97-6.61-2.94c-2.09-4.54-4.18-9.14-6.82-13.37
		c-3.41-5.46-8.43-9.03-14.92-10.3c-11.42-2.24-20.1,2.17-24.15,13c-1.77,4.74-2.92,9.85-3.44,14.89
		c-1.14,10.97-1.18,21.98,2.22,32.68c3.84,12.08,11.93,18.06,23.98,17.9c12.33-0.16,21.39-6.87,24.85-18.53
		c0.67-2.24,1.15-4.56,1.45-6.88c0.67-5.08,0.6-5.09,5.89-4.4c1.64,11.57-4.51,25.75-15.31,31.08c-3.97,1.96-8.35,3.1-12.54,4.61
		C255.19,113.27,249.82,113.27,244.44,113.27z"/>
	<path class="st2" d="M374.7,113.27c-1.91-0.62-3.84-1.19-5.73-1.86c-14.22-4.99-22.99-18.85-21.27-33.57
		c1.61-13.82,13.69-25.61,28.04-27.34c13.78-1.66,25.41,2.21,33.5,13.83c12.66,18.19,2.64,42.96-19.26,48.18
		c-0.81,0.19-1.59,0.51-2.38,0.76C383.3,113.27,379,113.27,374.7,113.27z M368.68,81.65c0.92,5.86,1.45,11.71,2.82,17.36
		c1.53,6.3,5.39,9.71,9.69,9.68c4.35-0.02,8.04-3.41,9.73-9.68c3.1-11.54,3.06-23.18-0.07-34.71c-1.65-6.07-5.28-9.27-9.66-9.29
		c-4.37-0.02-8.11,3.16-9.61,9.3C370.19,69.96,369.62,75.81,368.68,81.65z"/>
	<path class="st2" d="M517.86,113.27c-2.13-0.66-4.3-1.23-6.39-2c-13.49-4.97-22.62-19.05-21-32.3
		c1.83-14.99,13.55-26.46,28.37-28.55c20.78-2.92,33.58,12.42,32.92,31.68c-13.33,0-26.68,0-40.43,0
		c-0.03,7.95,0.47,15.33,5.97,21.24c4.39,4.71,12.13,5.68,18.44,1.8c4.38-2.69,8.09-6.48,12.41-10.04c0.65,0.39,1.9,1.15,3.37,2.04
		c-3.96,7.91-9.79,13.23-18.36,15.4c-0.81,0.21-1.61,0.49-2.41,0.74C526.46,113.27,522.16,113.27,517.86,113.27z M511.22,75.78
		c6.78,0,14.62,0,21.77,0c-0.72-5.04-2.66-11.28-3.52-14.45c-1.03-3.82-2.87-5.99-6.77-6.27c-3.7-0.26-6.06,1.77-7.69,4.8
		C512.36,64.78,511.76,70.16,511.22,75.78z"/>
	<path class="st2" d="M701,111.99c-13.38,0-26.76,0-40.32,0c0-1.83,0-3.38,0-5.16c1.57-0.19,3.04-0.33,4.51-0.54
		c4.07-0.58,6.02-2.2,6.07-6.16c0.17-12.69,0.16-25.39,0-38.09c-0.05-3.86-1.84-5.36-5.81-6.02c-1.36-0.23-2.74-0.36-4.33-0.57
		c0-1.48,0-2.93,0-4.87c9.71,0,19.41,0,29.57,0c0.05,0.84,0.17,2.06,0.17,3.28c0.01,13.66,0.15,27.32-0.03,40.98
		c-0.17,12.37,2.83,11.01,10.2,12.01C701,108.57,701,110.28,701,111.99z"/>
	<path class="st2" d="M454.36,106.9c0,1.56,0,3.02,0,4.77c-12.72,0-25.43,0-38.41,0c0-1.45,0-2.98,0-4.84
		c0.93-0.14,1.95-0.32,2.97-0.45c4.44-0.58,6.11-2.2,6.15-6.68c0.1-11.96,0.1-23.93,0-35.89c-0.04-4.4-1.58-5.9-5.89-6.54
		c-0.95-0.14-1.9-0.28-3.01-0.45c0-1.42,0-2.77,0-4.62c8.86,0,17.68,0,26.95,0c0,2.35,0,4.93,0,7.51c0.28,0.13,0.56,0.26,0.83,0.39
		c1.19-1.31,2.31-2.7,3.6-3.91c5.84-5.5,12.81-7.13,20.57-5.57c7.86,1.58,12.76,8.08,12.88,17.28c0.12,9.93,0.03,19.87,0.04,29.8
		c0.01,6.66,0.49,7.26,7.02,8.81c3.47,0.83,0.66,3.41,2.2,5.22c-9.84,0-18.9,0-28.33,0c0-1.31,0-2.45,0-3.59
		c0-14.32,0-28.63,0-42.95c0-3.05,0.03-6.16-3.48-7.55c-2.82-1.12-6.18,0.17-8.7,3.41c-3.75,4.81-5.43,10.38-5.48,16.43
		c-0.06,6.62-0.02,13.25-0.01,19.87c0.01,7.16,1.06,8.33,8.11,9.16C452.99,106.59,453.6,106.75,454.36,106.9z"/>
	<path class="st2" d="M329.42,58.46c-1.52,2.24-3.37,4.32-4.49,6.74c-5.26,11.27-5.78,23.28-4.95,35.41
		c0.23,3.29,2.55,5.05,5.75,5.54c1.8,0.28,3.62,0.38,5.69,0.59c0,1.66,0,3.27,0,5.05c-13.29,0-26.44,0-39.77,0c0-1.73,0-3.28,0-4.81
		c0.41-0.15,0.7-0.31,1.01-0.36c8.22-1.27,8.65-1.76,8.65-9.92c0-10.25,0.01-20.49,0-30.74c-0.01-6.8-1.06-7.98-7.69-8.85
		c-0.62-0.08-1.23-0.22-1.99-0.35c0-1.45,0-2.79,0-4.6c8.96,0,17.8,0,27.02,0c0,3.77,0,7.73,0,12.49c2.21-3.33,3.74-6.1,5.71-8.5
		c3.96-4.83,9.03-7.14,15.39-5.58c5.92,1.46,9.47,6.98,8.41,12.9c-0.91,5.11-4.97,8.24-10.12,7.81c-5-0.42-7.85-3.68-7.91-9.1
		c-0.01-1.06,0-2.12,0-3.18C329.89,58.81,329.65,58.64,329.42,58.46z"/>
	<path class="st2" d="M553.82,106.82c1.02-0.15,1.95-0.3,2.89-0.41c5.1-0.6,6.73-2.28,6.77-7.48c0.07-10.99,0.04-21.99,0.02-32.98
		c-0.01-6.71-1.14-7.97-7.75-8.86c-0.62-0.08-1.22-0.24-1.94-0.39c-0.07-0.83-0.18-1.56-0.18-2.29c0-0.62,0.14-1.24,0.27-2.28
		c8.92,0,17.77,0,26.93,0c0,3.72,0,7.62,0,11.52c0.2,0.07,0.41,0.13,0.61,0.2c0.98-1.66,1.91-3.36,2.96-4.97
		c2.97-4.55,6.75-7.98,12.45-8.74c8.32-1.1,15.11,5.8,13.36,13.63c-1.18,5.29-5.29,8.13-10.67,7.38c-4.77-0.67-7.56-4.35-7.3-9.67
		c0.05-0.94,0.2-1.88-0.41-3.24c-1.54,2.19-3.45,4.21-4.57,6.59c-5.29,11.25-6.06,23.24-5.13,35.38c0.29,3.79,2.25,5.39,6.04,5.97
		c1.79,0.27,3.6,0.4,5.52,0.61c0,1.65,0,3.12,0,4.88c-13.23,0-26.45,0-39.88,0C553.82,110.09,553.82,108.55,553.82,106.82z"/>
	<path class="st2" d="M617.27,89.37c0-4.22,0-8.14,0-12.32c10.84,0,21.59,0,32.66,0c0,4,0,8.06,0,12.32
		C639.12,89.37,628.36,89.37,617.27,89.37z"/>
	<path class="st2" d="M690.81,30.83c0,6.22-4.78,10.91-11.04,10.83c-6.03-0.08-10.83-4.89-10.81-10.85
		c0.01-5.92,4.87-10.8,10.84-10.89C685.96,19.82,690.81,24.62,690.81,30.83z"/>
	<path class="st1" d="M368.68,81.65c0-7.13,1.51-11.69,2.9-17.34c1.51-6.14,5.24-9.32,9.61-9.3c4.38,0.02,8.01,3.22,9.66,9.29
		c3.13,11.53,3.18,23.17,0.07,34.71c-1.68,6.27-5.37,9.66-9.73,9.68c-4.3,0.02-8.16-3.38-9.69-9.68
		C370.13,93.36,368.68,89.89,368.68,81.65z"/>
	<path class="st1" d="M511.22,75.78c0.54-5.62,1.15-11,3.79-15.92c1.63-3.03,3.99-5.06,7.69-4.8c3.9,0.28,6.06,2.78,6.77,6.27
		c0.95,4.66,1.42,9.41,2.14,14.45C524.46,75.78,518,75.78,511.22,75.78z"/>
</g>
<g>
	<g id="Croner-i_1_">
		<path d="M285.94,52.29c0,4.88-0.02,9.77,0.02,14.65c0.01,0.83-0.2,1.11-1.04,1.05c-1.11-0.07-2.23-0.1-3.33,0.01
			c-0.9,0.09-1.12-0.41-1.36-1.07c-1.97-5.36-4.22-10.58-7.42-15.33c-3.6-5.35-8.24-9.35-14.74-10.66
			c-5.7-1.15-11.3-1.06-16.45,2.12c-4.31,2.66-6.85,6.71-8.65,11.29c-1.78,4.55-2.65,9.31-3.19,14.15c-0.4,3.56-0.61,7.14-0.6,10.71
			c0.05,8.86,0.61,17.67,4.19,25.96c2.78,6.44,7.08,11.53,14.1,13.33c9.99,2.57,19.36,1.35,27.1-6.15c3.92-3.8,5.94-8.7,7.17-13.94
			c0.62-2.65,1.04-5.35,1.13-8.08c0.02-0.53,0.13-0.81,0.75-0.79c1.48,0.04,2.96,0.03,4.44,0c0.55-0.01,0.69,0.2,0.68,0.71
			c-0.19,8.89-2.02,17.25-7.9,24.27c-4.24,5.06-9.76,8.09-16.08,9.72c-6,1.55-12.09,1.71-18.23,1.14
			c-7.29-0.67-14.14-2.67-20.4-6.48c-10.05-6.12-16.32-15.09-19.13-26.4c-3.28-13.2-1.6-25.75,5.97-37.22
			c7.12-10.79,16.98-17.71,29.76-20.25c9.75-1.94,18.93-0.07,27.76,4.14c1.53,0.73,3.03,1.51,4.52,2.3c0.48,0.25,0.78,0.27,1.2-0.2
			c1.31-1.46,2.72-2.82,4.04-4.26c0.32-0.35,0.64-0.42,1.06-0.42c1.22,0.01,2.45,0.07,3.66-0.02c0.92-0.07,0.99,0.32,0.98,1.08
			C285.93,42.52,285.94,47.41,285.94,52.29z"/>
		<path d="M442.92,72.94c2.18-2.42,4.2-4.6,6.58-6.43c4.47-3.43,9.54-4.56,15.05-4.23c3.45,0.21,6.68,1.08,9.51,3.12
			c3.93,2.84,5.7,6.89,6.42,11.54c0.27,1.77,0.21,3.54,0.22,5.31c0.01,9.39-0.01,18.79,0.01,28.18c0,1.14,0.06,2.3,0.26,3.42
			c0.54,3.02,2.38,4.6,5.54,4.87c0.33,0.03,0.66,0.07,0.99,0.11c1.94,0.25,1.96,0.25,1.93,2.28c-0.02,0.98,0.44,2.29-0.21,2.85
			c-0.56,0.48-1.83,0.17-2.78,0.17c-7.77,0.01-15.54-0.01-23.31,0.02c-0.98,0-1.3-0.2-1.29-1.25c0.04-15.27,0.03-30.55,0.03-45.82
			c0-1.07-0.03-2.13-0.24-3.19c-0.78-3.93-4.04-5.33-7.4-4.28c-2.5,0.78-4.2,2.55-5.6,4.63c-3.08,4.58-4.61,9.68-4.67,15.17
			c-0.09,7.14-0.03,14.28-0.01,21.41c0,0.92,0.02,1.86,0.18,2.76c0.52,2.91,2.1,4.41,5.04,4.92c1.46,0.25,2.92,0.39,4.4,0.42
			c0.52,0.01,0.71,0.14,0.69,0.69c-0.04,1.18-0.06,2.37,0.01,3.55c0.04,0.79-0.22,1.09-0.99,0.97c-0.07-0.01-0.15,0-0.22,0
			c-12.14,0-24.27-0.01-36.41,0.02c-0.86,0-1.17-0.19-1.1-1.08c0.08-1.1,0.05-2.22,0.01-3.33c-0.03-0.61,0.13-0.8,0.78-0.82
			c1.21-0.04,2.42-0.14,3.62-0.39c3.31-0.67,4.92-2.5,5.03-5.86c0.07-2.18,0.12-4.36,0.13-6.54c0.01-9.25,0.01-18.49,0-27.74
			c0-1.29,0.01-2.6-0.18-3.87c-0.5-3.3-2.2-4.87-5.54-5.3c-0.66-0.09-1.32-0.16-1.98-0.21c-1.52-0.13-1.52-0.12-1.52-1.71
			c0-0.78,0.04-1.56-0.01-2.33c-0.04-0.59,0.16-0.73,0.74-0.74c3.18-0.02,6.36-0.06,9.53-0.13c5.35-0.12,10.71-0.25,16.06-0.41
			c0.75-0.02,0.74,0.36,0.74,0.89C442.91,67.28,442.92,69.97,442.92,72.94z"/>
		<path d="M381.02,62.35c9.83-0.08,18.37,3.1,25.12,10.4c4.86,5.26,7.7,11.49,8.4,18.68c1.29,13.13-7.26,27.35-21,32.09
			c-10.9,3.76-21.59,3.07-31.47-3.19c-8.06-5.12-12.9-12.61-14.36-22.09c-1.51-9.85,1.69-18.33,8.25-25.57
			c5.38-5.94,12.23-9.2,20.19-10.13c0.4-0.05,0.8-0.17,1.2-0.18C378.59,62.34,379.8,62.35,381.02,62.35z M393.02,93.99
			c0.03-4.1-0.24-8.19-0.92-12.23c-0.62-3.63-1.56-7.17-3.58-10.33c-3.79-5.92-10.92-6.01-14.85-0.2c-1.08,1.6-1.85,3.34-2.43,5.17
			c-1.3,4.1-1.8,8.32-2.05,12.59c-0.39,6.55-0.15,13.05,1.22,19.47c0.75,3.51,1.92,6.87,4.37,9.63c3.29,3.69,8.68,3.83,12.17,0.33
			c1.75-1.76,2.83-3.93,3.63-6.24C392.59,106.28,392.94,100.16,393.02,93.99z"/>
		<path d="M531.27,94.29c-6.47,0-12.95,0.01-19.42-0.02c-0.75,0-1,0.14-0.98,0.95c0.14,4.8,0.61,9.53,2.23,14.1
			c3.58,10.09,13.02,12.13,20.78,9.02c5.29-2.12,9.17-5.97,12.44-10.48c0.67-0.92,1.13-1.07,1.94-0.34
			c0.22,0.19,0.49,0.32,0.74,0.48c0.76,0.5,1.99,0.79,2.14,1.56c0.12,0.66-0.73,1.52-1.19,2.28c-4.26,7.04-10.22,11.68-18.44,13.17
			c-15.93,2.89-31.64-3.24-38.66-18.95c-5.3-11.86-2.19-24.81,6.37-33.78c5.42-5.67,12.11-8.83,19.88-9.76
			c6.52-0.78,12.8-0.15,18.58,3.21c6.84,3.97,10.71,10.12,12.71,17.6c0.87,3.25,1.15,6.59,1.34,9.93c0.05,0.84-0.2,1.05-1.04,1.04
			C544.22,94.27,537.74,94.29,531.27,94.29z M520.9,88.3c3.07,0,6.13-0.02,9.2,0.02c0.71,0.01,0.95-0.16,0.93-0.9
			c-0.05-2.58-0.1-5.17-0.39-7.73c-0.34-2.95-0.87-5.86-2.18-8.6c-2.38-4.98-8.72-5.31-11.91-1.74c-1.19,1.34-2.1,2.83-2.78,4.47
			c-1.84,4.44-2.36,9.14-2.88,13.85c-0.08,0.75,0.37,0.64,0.81,0.64C514.76,88.3,517.83,88.3,520.9,88.3z"/>
		<path d="M592.31,69.92c-2.12,1.9-3.92,4.06-5.25,6.6c-2.17,4.18-3.4,8.66-4.23,13.26c-1.2,6.68-1.49,13.42-1.34,20.18
			c0.03,1.3,0.2,2.58,0.52,3.83c0.76,2.96,2.93,4.25,5.76,4.71c1.64,0.27,3.3,0.4,4.96,0.41c0.67,0.01,0.79,0.24,0.77,0.83
			c-0.04,1.15-0.07,2.3,0.01,3.44c0.05,0.81-0.25,0.96-1,0.96c-8.58-0.03-17.17-0.02-25.76-0.02c-4.11,0-8.22-0.02-12.32,0.02
			c-0.7,0.01-0.97-0.15-0.92-0.9c0.07-1.11,0.06-2.22,0-3.33c-0.04-0.72,0.08-1,0.92-1.02c1.21-0.02,2.42-0.14,3.63-0.37
			c3.98-0.76,5.17-2.8,5.19-6.05c0.11-12.35,0.08-24.71,0.02-37.06c-0.02-3.7-2.17-5.79-6.01-6.19c-0.73-0.08-1.47-0.17-2.2-0.22
			c-1.53-0.11-1.53-0.1-1.53-1.58c0-0.81,0.03-1.63-0.01-2.44c-0.03-0.58,0.14-0.74,0.73-0.75c2.88-0.01,5.77-0.06,8.65-0.12
			c5.69-0.12,11.38-0.25,17.06-0.41c0.84-0.02,0.65,0.48,0.65,0.91c0.01,3.88,0,7.77,0,11.65c0,0.36,0,0.71,0,1.07
			c0.06,0.02,0.13,0.04,0.19,0.07c0.3-0.63,0.61-1.27,0.91-1.9c1.92-3.99,4.22-7.7,7.82-10.42c5.25-3.96,12.54-3.8,17.23,0.35
			c4.89,4.33,4.46,13.12-0.82,16.53c-5.49,3.55-12.37,0.77-13.68-5.56c-0.41-1.97-0.15-3.96,0.15-5.94
			C592.45,70.26,592.64,70.03,592.31,69.92c0.05,0.07,0.09,0.15,0.14,0.23c0.02-0.02,0.05-0.05,0.07-0.07
			C592.45,70.02,592.38,69.97,592.31,69.92z"/>
		<path d="M318.61,77.32c1.85-3.67,3.77-7.2,6.56-10.22c4.46-4.83,11.58-6.32,17.13-3.4c7.37,3.89,7.18,13.35,2.67,17.46
			c-3.93,3.59-13.09,3.32-14.68-4.32c-0.4-1.91-0.31-3.8-0.01-5.71c0.05-0.32,0.1-0.64,0.17-1.12c-1.2,0.68-2,1.59-2.77,2.51
			c-3.12,3.72-4.76,8.16-5.94,12.78c-1.54,6.06-2.16,12.24-2.29,18.48c-0.06,2.88-0.15,5.75,0.25,8.62
			c0.51,3.69,2.34,5.52,6.03,6.09c1.64,0.25,3.3,0.39,4.96,0.41c0.65,0.01,0.81,0.21,0.79,0.82c-0.05,1.14-0.07,2.3,0,3.44
			c0.05,0.81-0.27,0.97-1.01,0.97c-5.7-0.03-11.39-0.01-17.09-0.01c-6.95,0-13.91-0.02-20.86,0.02c-0.88,0-1.15-0.22-1.09-1.1
			c0.08-1.14,0.05-2.29,0.01-3.44c-0.02-0.53,0.13-0.67,0.67-0.7c1.83-0.11,3.67-0.18,5.44-0.8c2.11-0.74,3.17-2.27,3.53-4.39
			c0.2-1.17,0.24-2.35,0.24-3.53c-0.01-11.2,0-22.41-0.03-33.61c0-0.92-0.09-1.85-0.28-2.74c-0.63-2.81-2.52-4.27-5.83-4.62
			c-0.7-0.07-1.39-0.16-2.09-0.22c-1.64-0.13-1.64-0.13-1.64-1.82c0-0.7,0.05-1.41-0.01-2.11c-0.07-0.72,0.24-0.84,0.89-0.84
			c7.24-0.1,14.48-0.22,21.73-0.35c1.22-0.02,2.44-0.01,3.65-0.15c0.79-0.09,0.94,0.13,0.94,0.86c-0.03,4.07-0.01,8.14-0.01,12.2
			C318.61,76.97,318.61,77.14,318.61,77.32z"/>
		<path d="M700.47,118.97c0.01,1.77,0.03,3.53,0.04,5.3c-0.33,0.03-0.66,0.08-0.99,0.08c-12.69,0-25.38-0.01-38.06,0.02
			c-0.91,0-1.24-0.19-1.16-1.14c0.09-1.14,0.06-2.29,0.01-3.44c-0.03-0.68,0.16-0.89,0.85-0.87c1.89,0.04,3.76-0.17,5.58-0.67
			c2.58-0.71,3.96-2.48,4.26-5.16c0.17-1.55,0.19-3.09,0.19-4.64c0-10.8,0.01-21.59-0.01-32.39c0-1.1-0.1-2.22-0.29-3.3
			c-0.48-2.75-2.3-4.14-4.92-4.66c-1.49-0.3-2.99-0.53-4.5-0.43c-0.76,0.05-0.95-0.23-0.91-0.94c0.05-1.07,0.05-2.15,0-3.22
			c-0.02-0.58,0.16-0.74,0.74-0.75c3.73-0.04,7.46-0.13,11.19-0.2c5.65-0.11,11.3-0.19,16.95-0.33c0.85-0.02,1.09,0.19,1.09,1.07
			c-0.03,15.75-0.02,31.5-0.02,47.26c0,1.37,0.11,2.73,0.49,4.05c0.68,2.41,2.76,3.85,5.83,4.11
			C698.04,118.81,699.26,118.88,700.47,118.97z"/>
		<path d="M633.51,88.98c5.1,0,10.21,0.03,15.31-0.02c0.9-0.01,1.08,0.26,1.07,1.1c-0.05,3.55-0.04,7.1,0,10.65
			c0.01,0.72-0.1,1.02-0.94,1.02c-10.36-0.03-20.71-0.02-31.07-0.01c-0.66,0-0.98-0.08-0.97-0.88c0.05-3.66,0.04-7.32,0-10.98
			c-0.01-0.76,0.25-0.9,0.94-0.9C623.08,88.99,628.29,88.98,633.51,88.98z"/>
		<path d="M690.52,42.83c-0.01,6.06-4.78,10.81-10.84,10.82c-6.08,0-10.91-4.84-10.89-10.91c0.03-6.04,4.81-10.8,10.87-10.81
			C685.79,31.93,690.53,36.69,690.52,42.83z"/>
	</g>
	<g>
		<defs>
			<path id="App_shape_15_" d="M158.47,156.59H56.89c-14.86,0-26.91-12.05-26.91-26.91V28.08c0-14.86,12.05-26.91,26.91-26.91
				h101.59c14.86,0,26.91,12.05,26.91,26.91v101.59C185.39,144.54,173.34,156.59,158.47,156.59z"/>
		</defs>
		<clipPath id="App_shape_00000163059800321908490720000005226627403169351826_">
			<use xlink:href="#App_shape_15_"  style="overflow:visible;"/>
		</clipPath>
		<polygon style="clip-path:url(#App_shape_00000163059800321908490720000005226627403169351826_);fill:#D31A2B;" points="
			107.74,-26.6 107.73,-26.59 107.73,78.84 182.29,4.29 		"/>
		<path style="clip-path:url(#App_shape_00000163059800321908490720000005226627403169351826_);fill:#20211E;" d="M107.72,78.85
			h0.01H107.72z"/>
		<polygon style="clip-path:url(#App_shape_00000163059800321908490720000005226627403169351826_);fill:#DE9D00;" points="
			33.17,4.28 33.17,4.31 107.72,78.85 107.73,78.84 107.73,-26.6 		"/>
		<path style="clip-path:url(#App_shape_00000163059800321908490720000005226627403169351826_);fill:#20211E;" d="M107.73,78.86
			v-0.01V78.86z"/>
		<polygon style="clip-path:url(#App_shape_00000163059800321908490720000005226627403169351826_);fill:#20211E;" points="
			107.72,78.85 107.73,78.85 107.73,78.83 		"/>
		<polygon style="clip-path:url(#App_shape_00000163059800321908490720000005226627403169351826_);fill:#F9B036;" points="
			2.29,78.85 107.72,78.85 107.73,78.84 33.17,4.3 		"/>
		<polygon style="clip-path:url(#App_shape_00000163059800321908490720000005226627403169351826_);fill:#0070B3;" points="
			2.29,78.85 33.17,153.4 107.72,78.85 		"/>
		<polygon style="clip-path:url(#App_shape_00000163059800321908490720000005226627403169351826_);fill:#005492;" points="
			107.73,78.85 107.73,78.86 107.73,184.31 33.16,153.43 33.16,153.4 107.72,78.85 		"/>
		<polygon style="clip-path:url(#App_shape_00000163059800321908490720000005226627403169351826_);fill:#A81127;" points="
			107.73,78.84 182.29,4.28 182.3,4.28 213.19,78.86 107.73,78.86 		"/>
		<polygon style="clip-path:url(#App_shape_00000163059800321908490720000005226627403169351826_);fill:#7B2182;" points="
			182.3,153.43 107.73,184.3 107.73,78.87 		"/>
		<polygon style="clip-path:url(#App_shape_00000163059800321908490720000005226627403169351826_);fill:#702A72;" points="
			107.73,78.85 213.19,78.85 213.19,78.86 182.3,153.43 107.73,78.86 		"/>
	</g>
</g>
</svg>
