<?xml version="1.0" encoding="UTF-8" standalone="no" ?>
<!DOCTYPE svg PUBLIC "-//W3C//DTD SVG 1.1//EN" "http://www.w3.org/Graphics/SVG/1.1/DTD/svg11.dtd">
<svg xmlns="http://www.w3.org/2000/svg" xmlns:xlink="http://www.w3.org/1999/xlink" version="1.1" width="673" height="158" viewBox="0 0 673 158" xml:space="preserve">
<desc>Created with Fabric.js 3.6.3</desc>
<defs>
</defs>
<g transform="matrix(1 0 0 1 341.06 90.74)"  >
<g style=""   >
		<g transform="matrix(1 0 0 1 82.99 -24.57)" id="Croner-i_Logo_2020"  >
<path style="stroke: none; stroke-width: 1; stroke-dasharray: none; stroke-linecap: butt; stroke-dashoffset: 0; stroke-linejoin: miter; stroke-miterlimit: 4; fill: rgb(255,255,255); fill-rule: nonzero; opacity: 1; visibility: hidden;"  transform=" translate(-453.05, -66.17)" d="M 517.86 113.27 c -43.42 0 -86.84 0 -130.26 0 c 0.79 -0.26 1.57 -0.57 2.38 -0.76 c 21.9 -5.21 31.92 -29.98 19.26 -48.18 c -8.08 -11.62 -19.71 -15.49 -33.5 -13.83 c -14.34 1.73 -26.43 13.52 -28.04 27.34 c -1.72 14.73 7.05 28.58 21.27 33.57 c 1.89 0.66 3.82 1.24 5.73 1.86 c -38.05 0 -76.09 0 -114.14 0 c 4.19 -1.51 8.57 -2.65 12.54 -4.61 c 10.8 -5.33 16.95 -19.5 15.31 -31.08 c -5.29 -0.69 -5.22 -0.68 -5.89 4.4 c -0.3 2.32 -0.78 4.64 -1.45 6.88 c -3.46 11.66 -12.52 18.37 -24.85 18.53 c -12.06 0.15 -20.14 -5.82 -23.98 -17.9 c -3.4 -10.7 -3.36 -21.71 -2.22 -32.68 c 0.52 -5.04 1.67 -10.15 3.44 -14.89 c 4.05 -10.82 12.73 -15.24 24.15 -13 c 6.49 1.28 11.51 4.85 14.92 10.3 c 2.64 4.23 4.73 8.82 6.82 13.37 c 1.79 3.91 1.98 4.14 6.61 2.94 c 0 -10.16 0 -20.36 0 -30.59 c -3.08 -0.84 -5.7 -0.67 -7.53 2.09 c -1.59 2.4 -3.26 2.53 -5.86 1.15 c -9.75 -5.17 -20.05 -7.41 -31.08 -4.91 c -23.69 5.38 -36.29 27.73 -35.95 45.07 c 0.32 16.26 8.61 35.13 28.75 42.13 c 3.31 1.15 6.76 1.87 10.15 2.79 c -13.11 0 -26.22 0 -39.34 0 c 0 -31.41 0 -62.82 0 -94.23 c 165.3 0 330.6 0 495.9 0 c 0 29.27 0 58.55 0 87.82 c -7.36 -1.01 -10.37 0.35 -10.2 -12.01 c 0.19 -13.66 0.05 -27.32 0.03 -40.98 c 0 -1.22 -0.12 -2.44 -0.17 -3.28 c -10.15 0 -19.86 0 -29.57 0 c 0 1.95 0 3.39 0 4.87 c 1.59 0.21 2.97 0.34 4.33 0.57 c 3.97 0.66 5.76 2.16 5.81 6.02 c 0.17 12.69 0.17 25.39 0 38.09 c -0.05 3.95 -2 5.57 -6.07 6.16 c -1.46 0.21 -2.93 0.35 -4.51 0.54 c 0 1.78 0 3.33 0 5.16 c 13.56 0 26.94 0 40.32 0 c -0.21 0.43 -0.35 1.14 -0.66 1.22 c -0.7 0.18 -1.49 0.06 -2.24 0.06 c -55.78 0 -111.56 0 -167.34 0 c 0.8 -0.25 1.6 -0.53 2.41 -0.74 c 8.57 -2.16 14.4 -7.49 18.36 -15.4 c -1.46 -0.88 -2.72 -1.64 -3.37 -2.04 c -4.33 3.56 -8.03 7.35 -12.41 10.04 c -6.32 3.88 -14.06 2.91 -18.44 -1.8 c -5.5 -5.9 -6 -13.28 -5.97 -21.24 c 13.75 0 27.1 0 40.43 0 c 0.66 -19.26 -12.14 -34.6 -32.92 -31.68 c -14.83 2.08 -26.54 13.56 -28.37 28.55 c -1.62 13.26 7.51 27.33 21 32.3 C 513.56 112.04 515.73 112.61 517.86 113.27 z M 454.36 106.9 c -0.76 -0.15 -1.37 -0.32 -1.99 -0.39 c -7.05 -0.83 -8.1 -2 -8.11 -9.16 c -0.01 -6.62 -0.04 -13.25 0.01 -19.87 c 0.05 -6.04 1.73 -11.61 5.48 -16.43 c 2.52 -3.24 5.88 -4.52 8.7 -3.41 c 3.51 1.39 3.48 4.5 3.48 7.55 c 0 14.32 0 28.63 0 42.95 c 0 1.14 0 2.29 0 3.59 c 9.44 0 18.49 0 28.33 0 c -1.54 -1.81 1.27 -4.39 -2.2 -5.22 c -6.53 -1.56 -7.01 -2.16 -7.02 -8.81 c -0.01 -9.94 0.08 -19.87 -0.04 -29.8 c -0.11 -9.2 -5.01 -15.7 -12.88 -17.28 c -7.76 -1.56 -14.73 0.07 -20.57 5.57 c -1.29 1.21 -2.4 2.6 -3.6 3.91 c -0.28 -0.13 -0.56 -0.26 -0.83 -0.39 c 0 -2.58 0 -5.16 0 -7.51 c -9.27 0 -18.1 0 -26.95 0 c 0 1.85 0 3.2 0 4.62 c 1.11 0.16 2.06 0.3 3.01 0.45 c 4.31 0.64 5.85 2.15 5.89 6.54 c 0.1 11.96 0.1 23.93 0 35.89 c -0.04 4.48 -1.71 6.1 -6.15 6.68 c -1.03 0.13 -2.05 0.31 -2.97 0.45 c 0 1.86 0 3.4 0 4.84 c 12.98 0 25.69 0 38.41 0 C 454.36 109.92 454.36 108.46 454.36 106.9 z M 329.42 58.46 c 0.24 0.18 0.47 0.35 0.71 0.53 c 0 1.06 -0.01 2.12 0 3.18 c 0.06 5.42 2.91 8.69 7.91 9.1 c 5.15 0.43 9.21 -2.7 10.12 -7.81 c 1.06 -5.92 -2.49 -11.44 -8.41 -12.9 c -6.35 -1.57 -11.43 0.75 -15.39 5.58 c -1.97 2.41 -3.5 5.17 -5.71 8.5 c 0 -4.76 0 -8.72 0 -12.49 c -9.23 0 -18.06 0 -27.02 0 c 0 1.8 0 3.14 0 4.6 c 0.76 0.13 1.37 0.27 1.99 0.35 c 6.63 0.87 7.68 2.05 7.69 8.85 c 0.02 10.25 0.01 20.49 0 30.74 c 0 8.16 -0.44 8.65 -8.65 9.92 c -0.31 0.05 -0.6 0.21 -1.01 0.36 c 0 1.54 0 3.08 0 4.81 c 13.33 0 26.48 0 39.77 0 c 0 -1.78 0 -3.39 0 -5.05 c -2.07 -0.21 -3.89 -0.31 -5.69 -0.59 c -3.2 -0.49 -5.53 -2.25 -5.75 -5.54 c -0.83 -12.13 -0.31 -24.13 4.95 -35.41 C 326.05 62.78 327.9 60.7 329.42 58.46 z M 553.82 106.82 c 0 1.73 0 3.27 0 4.85 c 13.43 0 26.65 0 39.88 0 c 0 -1.76 0 -3.23 0 -4.88 c -1.92 -0.21 -3.73 -0.34 -5.52 -0.61 c -3.79 -0.57 -5.75 -2.17 -6.04 -5.97 c -0.93 -12.15 -0.16 -24.13 5.13 -35.38 c 1.12 -2.38 3.02 -4.4 4.57 -6.59 c 0.61 1.37 0.45 2.3 0.41 3.24 c -0.26 5.33 2.52 9 7.3 9.67 c 5.38 0.75 9.48 -2.09 10.67 -7.38 c 1.75 -7.83 -5.03 -14.74 -13.36 -13.63 c -5.71 0.75 -9.48 4.18 -12.45 8.74 c -1.05 1.61 -1.98 3.31 -2.96 4.97 c -0.2 -0.07 -0.41 -0.13 -0.61 -0.2 c 0 -3.9 0 -7.8 0 -11.52 c -9.17 0 -18.02 0 -26.93 0 c -0.13 1.04 -0.26 1.66 -0.27 2.28 c 0 0.73 0.11 1.46 0.18 2.29 c 0.71 0.15 1.32 0.31 1.94 0.39 c 6.62 0.89 7.74 2.15 7.75 8.86 c 0.02 10.99 0.05 21.99 -0.02 32.98 c -0.03 5.2 -1.67 6.88 -6.77 7.48 C 555.78 106.52 554.84 106.67 553.82 106.82 z M 617.27 89.37 c 11.09 0 21.85 0 32.66 0 c 0 -4.26 0 -8.32 0 -12.32 c -11.07 0 -21.82 0 -32.66 0 C 617.27 81.23 617.27 85.15 617.27 89.37 z M 690.81 30.83 c 0 -6.21 -4.85 -11.01 -11.02 -10.91 c -5.97 0.09 -10.82 4.97 -10.84 10.89 c -0.02 5.96 4.78 10.77 10.81 10.85 C 686.03 41.74 690.81 37.06 690.81 30.83 z" stroke-linecap="round" />
</g>
		<g transform="matrix(1 0 0 1 -122.96 -22.97)" id="Croner-i_Logo_2020"  >
<path style="stroke: none; stroke-width: 1; stroke-dasharray: none; stroke-linecap: butt; stroke-dashoffset: 0; stroke-linejoin: miter; stroke-miterlimit: 4; fill: rgb(0,0,0); fill-rule: nonzero; opacity: 1; visibility: hidden;"  transform=" translate(-247.1, -67.77)" d="M 244.44 113.27 c -3.39 -0.92 -6.84 -1.64 -10.15 -2.79 c -20.14 -7 -28.43 -25.88 -28.75 -42.13 c -0.34 -17.34 12.26 -39.69 35.95 -45.07 c 11.03 -2.5 21.33 -0.26 31.08 4.91 c 2.6 1.38 4.27 1.25 5.86 -1.15 c 1.83 -2.77 4.44 -2.94 7.53 -2.09 c 0 10.23 0 20.43 0 30.59 c -4.62 1.2 -4.81 0.97 -6.61 -2.94 c -2.09 -4.54 -4.18 -9.14 -6.82 -13.37 c -3.41 -5.46 -8.43 -9.03 -14.92 -10.3 c -11.42 -2.24 -20.1 2.17 -24.15 13 c -1.77 4.74 -2.92 9.85 -3.44 14.89 c -1.14 10.97 -1.18 21.98 2.22 32.68 c 3.84 12.08 11.93 18.06 23.98 17.9 c 12.33 -0.16 21.39 -6.87 24.85 -18.53 c 0.67 -2.24 1.15 -4.56 1.45 -6.88 c 0.67 -5.08 0.6 -5.09 5.89 -4.4 c 1.64 11.57 -4.51 25.75 -15.31 31.08 c -3.97 1.96 -8.35 3.1 -12.54 4.61 C 255.19 113.27 249.82 113.27 244.44 113.27 z" stroke-linecap="round" />
</g>
		<g transform="matrix(1 0 0 1 11.08 -9.04)" id="Croner-i_Logo_2020"  >
<path style="stroke: none; stroke-width: 1; stroke-dasharray: none; stroke-linecap: butt; stroke-dashoffset: 0; stroke-linejoin: miter; stroke-miterlimit: 4; fill: rgb(0,0,0); fill-rule: nonzero; opacity: 1; visibility: hidden;"  transform=" translate(-381.14, -81.7)" d="M 374.7 113.27 c -1.91 -0.62 -3.84 -1.19 -5.73 -1.86 c -14.22 -4.99 -22.99 -18.85 -21.27 -33.57 c 1.61 -13.82 13.69 -25.61 28.04 -27.34 c 13.78 -1.66 25.41 2.21 33.5 13.83 c 12.66 18.19 2.64 42.96 -19.26 48.18 c -0.81 0.19 -1.59 0.51 -2.38 0.76 C 383.3 113.27 379 113.27 374.7 113.27 z M 368.68 81.65 c 0.92 5.86 1.45 11.71 2.82 17.36 c 1.53 6.3 5.39 9.71 9.69 9.68 c 4.35 -0.02 8.04 -3.41 9.73 -9.68 c 3.1 -11.54 3.06 -23.18 -0.07 -34.71 c -1.65 -6.07 -5.28 -9.27 -9.66 -9.29 c -4.37 -0.02 -8.11 3.16 -9.61 9.3 C 370.19 69.96 369.62 75.81 368.68 81.65 z" stroke-linecap="round" />
</g>
		<g transform="matrix(1 0 0 1 150.97 -9.07)" id="Croner-i_Logo_2020"  >
<path style="stroke: none; stroke-width: 1; stroke-dasharray: none; stroke-linecap: butt; stroke-dashoffset: 0; stroke-linejoin: miter; stroke-miterlimit: 4; fill: rgb(0,0,0); fill-rule: nonzero; opacity: 1; visibility: hidden;"  transform=" translate(-521.03, -81.67)" d="M 517.86 113.27 c -2.13 -0.66 -4.3 -1.23 -6.39 -2 c -13.49 -4.97 -22.62 -19.05 -21 -32.3 c 1.83 -14.99 13.55 -26.46 28.37 -28.55 c 20.78 -2.92 33.58 12.42 32.92 31.68 c -13.33 0 -26.68 0 -40.43 0 c -0.03 7.95 0.47 15.33 5.97 21.24 c 4.39 4.71 12.13 5.68 18.44 1.8 c 4.38 -2.69 8.09 -6.48 12.41 -10.04 c 0.65 0.39 1.9 1.15 3.37 2.04 c -3.96 7.91 -9.79 13.23 -18.36 15.4 c -0.81 0.21 -1.61 0.49 -2.41 0.74 C 526.46 113.27 522.16 113.27 517.86 113.27 z M 511.22 75.78 c 6.78 0 14.62 0 21.77 0 c -0.72 -5.04 -2.66 -11.28 -3.52 -14.45 c -1.03 -3.82 -2.87 -5.99 -6.77 -6.27 c -3.7 -0.26 -6.06 1.77 -7.69 4.8 C 512.36 64.78 511.76 70.16 511.22 75.78 z" stroke-linecap="round" />
</g>
		<g transform="matrix(1 0 0 1 310.79 -9.45)" id="Croner-i_Logo_2020"  >
<path style="stroke: none; stroke-width: 1; stroke-dasharray: none; stroke-linecap: butt; stroke-dashoffset: 0; stroke-linejoin: miter; stroke-miterlimit: 4; fill: rgb(0,0,0); fill-rule: nonzero; opacity: 1; visibility: hidden;"  transform=" translate(-680.86, -81.28)" d="M 701 111.99 c -13.38 0 -26.76 0 -40.32 0 c 0 -1.83 0 -3.38 0 -5.16 c 1.57 -0.19 3.04 -0.33 4.51 -0.54 c 4.07 -0.58 6.02 -2.2 6.07 -6.16 c 0.17 -12.69 0.16 -25.39 0 -38.09 c -0.05 -3.86 -1.84 -5.36 -5.81 -6.02 c -1.36 -0.23 -2.74 -0.36 -4.33 -0.57 c 0 -1.48 0 -2.93 0 -4.87 c 9.71 0 19.41 0 29.57 0 c 0.05 0.84 0.17 2.06 0.17 3.28 c 0.01 13.66 0.15 27.32 -0.03 40.98 c -0.17 12.37 2.83 11.01 10.2 12.01 C 701 108.57 701 110.28 701 111.99 z" stroke-linecap="round" />
</g>
		<g transform="matrix(1 0 0 1 83.04 -9.85)" id="Croner-i_Logo_2020"  >
<path style="stroke: none; stroke-width: 1; stroke-dasharray: none; stroke-linecap: butt; stroke-dashoffset: 0; stroke-linejoin: miter; stroke-miterlimit: 4; fill: rgb(0,0,0); fill-rule: nonzero; opacity: 1; visibility: hidden;"  transform=" translate(-453.11, -80.89)" d="M 454.36 106.9 c 0 1.56 0 3.02 0 4.77 c -12.72 0 -25.43 0 -38.41 0 c 0 -1.45 0 -2.98 0 -4.84 c 0.93 -0.14 1.95 -0.32 2.97 -0.45 c 4.44 -0.58 6.11 -2.2 6.15 -6.68 c 0.1 -11.96 0.1 -23.93 0 -35.89 c -0.04 -4.4 -1.58 -5.9 -5.89 -6.54 c -0.95 -0.14 -1.9 -0.28 -3.01 -0.45 c 0 -1.42 0 -2.77 0 -4.62 c 8.86 0 17.68 0 26.95 0 c 0 2.35 0 4.93 0 7.51 c 0.28 0.13 0.56 0.26 0.83 0.39 c 1.19 -1.31 2.31 -2.7 3.6 -3.91 c 5.84 -5.5 12.81 -7.13 20.57 -5.57 c 7.86 1.58 12.76 8.08 12.88 17.28 c 0.12 9.93 0.03 19.87 0.04 29.8 c 0.01 6.66 0.49 7.26 7.02 8.81 c 3.47 0.83 0.66 3.41 2.2 5.22 c -9.84 0 -18.9 0 -28.33 0 c 0 -1.31 0 -2.45 0 -3.59 c 0 -14.32 0 -28.63 0 -42.95 c 0 -3.05 0.03 -6.16 -3.48 -7.55 c -2.82 -1.12 -6.18 0.17 -8.7 3.41 c -3.75 4.81 -5.43 10.38 -5.48 16.43 c -0.06 6.62 -0.02 13.25 -0.01 19.87 c 0.01 7.16 1.06 8.33 8.11 9.16 C 452.99 106.59 453.6 106.75 454.36 106.9 z" stroke-linecap="round" />
</g>
		<g transform="matrix(1 0 0 1 -50.08 -9.8)" id="Croner-i_Logo_2020"  >
<path style="stroke: none; stroke-width: 1; stroke-dasharray: none; stroke-linecap: butt; stroke-dashoffset: 0; stroke-linejoin: miter; stroke-miterlimit: 4; fill: rgb(0,0,0); fill-rule: nonzero; opacity: 1; visibility: hidden;"  transform=" translate(-319.99, -80.94)" d="M 329.42 58.46 c -1.52 2.24 -3.37 4.32 -4.49 6.74 c -5.26 11.27 -5.78 23.28 -4.95 35.41 c 0.23 3.29 2.55 5.05 5.75 5.54 c 1.8 0.28 3.62 0.38 5.69 0.59 c 0 1.66 0 3.27 0 5.05 c -13.29 0 -26.44 0 -39.77 0 c 0 -1.73 0 -3.28 0 -4.81 c 0.41 -0.15 0.7 -0.31 1.01 -0.36 c 8.22 -1.27 8.65 -1.76 8.65 -9.92 c 0 -10.25 0.01 -20.49 0 -30.74 c -0.01 -6.8 -1.06 -7.98 -7.69 -8.85 c -0.62 -0.08 -1.23 -0.22 -1.99 -0.35 c 0 -1.45 0 -2.79 0 -4.6 c 8.96 0 17.8 0 27.02 0 c 0 3.77 0 7.73 0 12.49 c 2.21 -3.33 3.74 -6.1 5.71 -8.5 c 3.96 -4.83 9.03 -7.14 15.39 -5.58 c 5.92 1.46 9.47 6.98 8.41 12.9 c -0.91 5.11 -4.97 8.24 -10.12 7.81 c -5 -0.42 -7.85 -3.68 -7.91 -9.1 c -0.01 -1.06 0 -2.12 0 -3.18 C 329.89 58.81 329.65 58.64 329.42 58.46 z" stroke-linecap="round" />
</g>
		<g transform="matrix(1 0 0 1 211.99 -9.89)" id="Croner-i_Logo_2020"  >
<path style="stroke: none; stroke-width: 1; stroke-dasharray: none; stroke-linecap: butt; stroke-dashoffset: 0; stroke-linejoin: miter; stroke-miterlimit: 4; fill: rgb(0,0,0); fill-rule: nonzero; opacity: 1; visibility: hidden;"  transform=" translate(-582.06, -80.85)" d="M 553.82 106.82 c 1.02 -0.15 1.95 -0.3 2.89 -0.41 c 5.1 -0.6 6.73 -2.28 6.77 -7.48 c 0.07 -10.99 0.04 -21.99 0.02 -32.98 c -0.01 -6.71 -1.14 -7.97 -7.75 -8.86 c -0.62 -0.08 -1.22 -0.24 -1.94 -0.39 c -0.07 -0.83 -0.18 -1.56 -0.18 -2.29 c 0 -0.62 0.14 -1.24 0.27 -2.28 c 8.92 0 17.77 0 26.93 0 c 0 3.72 0 7.62 0 11.52 c 0.2 0.07 0.41 0.13 0.61 0.2 c 0.98 -1.66 1.91 -3.36 2.96 -4.97 c 2.97 -4.55 6.75 -7.98 12.45 -8.74 c 8.32 -1.1 15.11 5.8 13.36 13.63 c -1.18 5.29 -5.29 8.13 -10.67 7.38 c -4.77 -0.67 -7.56 -4.35 -7.3 -9.67 c 0.05 -0.94 0.2 -1.88 -0.41 -3.24 c -1.54 2.19 -3.45 4.21 -4.57 6.59 c -5.29 11.25 -6.06 23.24 -5.13 35.38 c 0.29 3.79 2.25 5.39 6.04 5.97 c 1.79 0.27 3.6 0.4 5.52 0.61 c 0 1.65 0 3.12 0 4.88 c -13.23 0 -26.45 0 -39.88 0 C 553.82 110.09 553.82 108.55 553.82 106.82 z" stroke-linecap="round" />
</g>
		<g transform="matrix(1 0 0 1 263.53 -7.53)" id="Croner-i_Logo_2020"  >
<path style="stroke: none; stroke-width: 1; stroke-dasharray: none; stroke-linecap: butt; stroke-dashoffset: 0; stroke-linejoin: miter; stroke-miterlimit: 4; fill: rgb(0,0,0); fill-rule: nonzero; opacity: 1; visibility: hidden;"  transform=" translate(-633.6, -83.21)" d="M 617.27 89.37 c 0 -4.22 0 -8.14 0 -12.32 c 10.84 0 21.59 0 32.66 0 c 0 4 0 8.06 0 12.32 C 639.12 89.37 628.36 89.37 617.27 89.37 z" stroke-linecap="round" />
</g>
		<g transform="matrix(1 0 0 1 309.82 -59.95)" id="Croner-i_Logo_2020"  >
<path style="stroke: none; stroke-width: 1; stroke-dasharray: none; stroke-linecap: butt; stroke-dashoffset: 0; stroke-linejoin: miter; stroke-miterlimit: 4; fill: rgb(0,0,0); fill-rule: nonzero; opacity: 1; visibility: hidden;"  transform=" translate(-679.88, -30.79)" d="M 690.81 30.83 c 0 6.22 -4.78 10.91 -11.04 10.83 c -6.03 -0.08 -10.83 -4.89 -10.81 -10.85 c 0.01 -5.92 4.87 -10.8 10.84 -10.89 C 685.96 19.82 690.81 24.62 690.81 30.83 z" stroke-linecap="round" />
</g>
		<g transform="matrix(1 0 0 1 10.89 -8.89)" id="Croner-i_Logo_2020"  >
<path style="stroke: none; stroke-width: 1; stroke-dasharray: none; stroke-linecap: butt; stroke-dashoffset: 0; stroke-linejoin: miter; stroke-miterlimit: 4; fill: rgb(255,255,255); fill-rule: nonzero; opacity: 1; visibility: hidden;"  transform=" translate(-380.95, -81.85)" d="M 368.68 81.65 c 0 -7.13 1.51 -11.69 2.9 -17.34 c 1.51 -6.14 5.24 -9.32 9.61 -9.3 c 4.38 0.02 8.01 3.22 9.66 9.29 c 3.13 11.53 3.18 23.17 0.07 34.71 c -1.68 6.27 -5.37 9.66 -9.73 9.68 c -4.3 0.02 -8.16 -3.38 -9.69 -9.68 C 370.13 93.36 368.68 89.89 368.68 81.65 z" stroke-linecap="round" />
</g>
		<g transform="matrix(1 0 0 1 151.35 -25.33)" id="Croner-i_Logo_2020"  >
<path style="stroke: none; stroke-width: 1; stroke-dasharray: none; stroke-linecap: butt; stroke-dashoffset: 0; stroke-linejoin: miter; stroke-miterlimit: 4; fill: rgb(255,255,255); fill-rule: nonzero; opacity: 1; visibility: hidden;"  transform=" translate(-521.41, -65.41)" d="M 511.22 75.78 c 0.54 -5.62 1.15 -11 3.79 -15.92 c 1.63 -3.03 3.99 -5.06 7.69 -4.8 c 3.9 0.28 6.06 2.78 6.77 6.27 c 0.95 4.66 1.42 9.41 2.14 14.45 C 524.46 75.78 518 75.78 511.22 75.78 z" stroke-linecap="round" />
</g>
		<g transform="matrix(1 0 0 1 -122.99 -10.77)" id="Croner-i_1_"  >
<path style="stroke: none; stroke-width: 1; stroke-dasharray: none; stroke-linecap: butt; stroke-dashoffset: 0; stroke-linejoin: miter; stroke-miterlimit: 4; fill: rgb(0,0,0); fill-rule: nonzero; opacity: 1;"  transform=" translate(-247.07, -79.97)" d="M 285.94 52.29 c 0 4.88 -0.02 9.77 0.02 14.65 c 0.01 0.83 -0.2 1.11 -1.04 1.05 c -1.11 -0.07 -2.23 -0.1 -3.33 0.01 c -0.9 0.09 -1.12 -0.41 -1.36 -1.07 c -1.97 -5.36 -4.22 -10.58 -7.42 -15.33 c -3.6 -5.35 -8.24 -9.35 -14.74 -10.66 c -5.7 -1.15 -11.3 -1.06 -16.45 2.12 c -4.31 2.66 -6.85 6.71 -8.65 11.29 c -1.78 4.55 -2.65 9.31 -3.19 14.15 c -0.4 3.56 -0.61 7.14 -0.6 10.71 c 0.05 8.86 0.61 17.67 4.19 25.96 c 2.78 6.44 7.08 11.53 14.1 13.33 c 9.99 2.57 19.36 1.35 27.1 -6.15 c 3.92 -3.8 5.94 -8.7 7.17 -13.94 c 0.62 -2.65 1.04 -5.35 1.13 -8.08 c 0.02 -0.53 0.13 -0.81 0.75 -0.79 c 1.48 0.04 2.96 0.03 4.44 0 c 0.55 -0.01 0.69 0.2 0.68 0.71 c -0.19 8.89 -2.02 17.25 -7.9 24.27 c -4.24 5.06 -9.76 8.09 -16.08 9.72 c -6 1.55 -12.09 1.71 -18.23 1.14 c -7.29 -0.67 -14.14 -2.67 -20.4 -6.48 c -10.05 -6.12 -16.32 -15.09 -19.13 -26.4 c -3.28 -13.2 -1.6 -25.75 5.97 -37.22 c 7.12 -10.79 16.98 -17.71 29.76 -20.25 c 9.75 -1.94 18.93 -0.07 27.76 4.14 c 1.53 0.73 3.03 1.51 4.52 2.3 c 0.48 0.25 0.78 0.27 1.2 -0.2 c 1.31 -1.46 2.72 -2.82 4.04 -4.26 c 0.32 -0.35 0.64 -0.42 1.06 -0.42 c 1.22 0.01 2.45 0.07 3.66 -0.02 c 0.92 -0.07 0.99 0.32 0.98 1.08 C 285.93 42.52 285.94 47.41 285.94 52.29 z" stroke-linecap="round" />
</g>
		<g transform="matrix(1 0 0 1 82.49 2.49)" id="Croner-i_1_"  >
<path style="stroke: none; stroke-width: 1; stroke-dasharray: none; stroke-linecap: butt; stroke-dashoffset: 0; stroke-linejoin: miter; stroke-miterlimit: 4; fill: rgb(0,0,0); fill-rule: nonzero; opacity: 1;"  transform=" translate(-452.55, -93.23)" d="M 442.92 72.94 c 2.18 -2.42 4.2 -4.6 6.58 -6.43 c 4.47 -3.43 9.54 -4.56 15.05 -4.23 c 3.45 0.21 6.68 1.08 9.51 3.12 c 3.93 2.84 5.7 6.89 6.42 11.54 c 0.27 1.77 0.21 3.54 0.22 5.31 c 0.01 9.39 -0.01 18.79 0.01 28.18 c 0 1.14 0.06 2.3 0.26 3.42 c 0.54 3.02 2.38 4.6 5.54 4.87 c 0.33 0.03 0.66 0.07 0.99 0.11 c 1.94 0.25 1.96 0.25 1.93 2.28 c -0.02 0.98 0.44 2.29 -0.21 2.85 c -0.56 0.48 -1.83 0.17 -2.78 0.17 c -7.77 0.01 -15.54 -0.01 -23.31 0.02 c -0.98 0 -1.3 -0.2 -1.29 -1.25 c 0.04 -15.27 0.03 -30.55 0.03 -45.82 c 0 -1.07 -0.03 -2.13 -0.24 -3.19 c -0.78 -3.93 -4.04 -5.33 -7.4 -4.28 c -2.5 0.78 -4.2 2.55 -5.6 4.63 c -3.08 4.58 -4.61 9.68 -4.67 15.17 c -0.09 7.14 -0.03 14.28 -0.01 21.41 c 0 0.92 0.02 1.86 0.18 2.76 c 0.52 2.91 2.1 4.41 5.04 4.92 c 1.46 0.25 2.92 0.39 4.4 0.42 c 0.52 0.01 0.71 0.14 0.69 0.69 c -0.04 1.18 -0.06 2.37 0.01 3.55 c 0.04 0.79 -0.22 1.09 -0.99 0.97 c -0.07 -0.01 -0.15 0 -0.22 0 c -12.14 0 -24.27 -0.01 -36.41 0.02 c -0.86 0 -1.17 -0.19 -1.1 -1.08 c 0.08 -1.1 0.05 -2.22 0.01 -3.33 c -0.03 -0.61 0.13 -0.8 0.78 -0.82 c 1.21 -0.04 2.42 -0.14 3.62 -0.39 c 3.31 -0.67 4.92 -2.5 5.03 -5.86 c 0.07 -2.18 0.12 -4.36 0.13 -6.54 c 0.01 -9.25 0.01 -18.49 0 -27.74 c 0 -1.29 0.01 -2.6 -0.18 -3.87 c -0.5 -3.3 -2.2 -4.87 -5.54 -5.3 c -0.66 -0.09 -1.32 -0.16 -1.98 -0.21 c -1.52 -0.13 -1.52 -0.12 -1.52 -1.71 c 0 -0.78 0.04 -1.56 -0.01 -2.33 c -0.04 -0.59 0.16 -0.73 0.74 -0.74 c 3.18 -0.02 6.36 -0.06 9.53 -0.13 c 5.35 -0.12 10.71 -0.25 16.06 -0.41 c 0.75 -0.02 0.74 0.36 0.74 0.89 C 442.91 67.28 442.92 69.97 442.92 72.94 z" stroke-linecap="round" />
</g>
		<g transform="matrix(1 0 0 1 10.94 3.35)" id="Croner-i_1_"  >
<path style="stroke: none; stroke-width: 1; stroke-dasharray: none; stroke-linecap: butt; stroke-dashoffset: 0; stroke-linejoin: miter; stroke-miterlimit: 4; fill: rgb(0,0,0); fill-rule: nonzero; opacity: 1;"  transform=" translate(-381, -94.09)" d="M 381.02 62.35 c 9.83 -0.08 18.37 3.1 25.12 10.4 c 4.86 5.26 7.7 11.49 8.4 18.68 c 1.29 13.13 -7.26 27.35 -21 32.09 c -10.9 3.76 -21.59 3.07 -31.47 -3.19 c -8.06 -5.12 -12.9 -12.61 -14.36 -22.09 c -1.51 -9.85 1.69 -18.33 8.25 -25.57 c 5.38 -5.94 12.23 -9.2 20.19 -10.13 c 0.4 -0.05 0.8 -0.17 1.2 -0.18 C 378.59 62.34 379.8 62.35 381.02 62.35 z M 393.02 93.99 c 0.03 -4.1 -0.24 -8.19 -0.92 -12.23 c -0.62 -3.63 -1.56 -7.17 -3.58 -10.33 c -3.79 -5.92 -10.92 -6.01 -14.85 -0.2 c -1.08 1.6 -1.85 3.34 -2.43 5.17 c -1.3 4.1 -1.8 8.32 -2.05 12.59 c -0.39 6.55 -0.15 13.05 1.22 19.47 c 0.75 3.51 1.92 6.87 4.37 9.63 c 3.29 3.69 8.68 3.83 12.17 0.33 c 1.75 -1.76 2.83 -3.93 3.63 -6.24 C 392.59 106.28 392.94 100.16 393.02 93.99 z" stroke-linecap="round" />
</g>
		<g transform="matrix(1 0 0 1 150.92 3.22)" id="Croner-i_1_"  >
<path style="stroke: none; stroke-width: 1; stroke-dasharray: none; stroke-linecap: butt; stroke-dashoffset: 0; stroke-linejoin: miter; stroke-miterlimit: 4; fill: rgb(0,0,0); fill-rule: nonzero; opacity: 1;"  transform=" translate(-520.99, -93.96)" d="M 531.27 94.29 c -6.47 0 -12.95 0.01 -19.42 -0.02 c -0.75 0 -1 0.14 -0.98 0.95 c 0.14 4.8 0.61 9.53 2.23 14.1 c 3.58 10.09 13.02 12.13 20.78 9.02 c 5.29 -2.12 9.17 -5.97 12.44 -10.48 c 0.67 -0.92 1.13 -1.07 1.94 -0.34 c 0.22 0.19 0.49 0.32 0.74 0.48 c 0.76 0.5 1.99 0.79 2.14 1.56 c 0.12 0.66 -0.73 1.52 -1.19 2.28 c -4.26 7.04 -10.22 11.68 -18.44 13.17 c -15.93 2.89 -31.64 -3.24 -38.66 -18.95 c -5.3 -11.86 -2.19 -24.81 6.37 -33.78 c 5.42 -5.67 12.11 -8.83 19.88 -9.76 c 6.52 -0.78 12.8 -0.15 18.58 3.21 c 6.84 3.97 10.71 10.12 12.71 17.6 c 0.87 3.25 1.15 6.59 1.34 9.93 c 0.05 0.84 -0.2 1.05 -1.04 1.04 C 544.22 94.27 537.74 94.29 531.27 94.29 z M 520.9 88.3 c 3.07 0 6.13 -0.02 9.2 0.02 c 0.71 0.01 0.95 -0.16 0.93 -0.9 c -0.05 -2.58 -0.1 -5.17 -0.39 -7.73 c -0.34 -2.95 -0.87 -5.86 -2.18 -8.6 c -2.38 -4.98 -8.72 -5.31 -11.91 -1.74 c -1.19 1.34 -2.1 2.83 -2.78 4.47 c -1.84 4.44 -2.36 9.14 -2.88 13.85 c -0.08 0.75 0.37 0.64 0.81 0.64 C 514.76 88.3 517.83 88.3 520.9 88.3 z" stroke-linecap="round" />
</g>
		<g transform="matrix(1 0 0 1 211.78 2.44)" id="Croner-i_1_"  >
<path style="stroke: none; stroke-width: 1; stroke-dasharray: none; stroke-linecap: butt; stroke-dashoffset: 0; stroke-linejoin: miter; stroke-miterlimit: 4; fill: rgb(0,0,0); fill-rule: nonzero; opacity: 1;"  transform=" translate(-581.84, -93.18)" d="M 592.31 69.92 c -2.12 1.9 -3.92 4.06 -5.25 6.6 c -2.17 4.18 -3.4 8.66 -4.23 13.26 c -1.2 6.68 -1.49 13.42 -1.34 20.18 c 0.03 1.3 0.2 2.58 0.52 3.83 c 0.76 2.96 2.93 4.25 5.76 4.71 c 1.64 0.27 3.3 0.4 4.96 0.41 c 0.67 0.01 0.79 0.24 0.77 0.83 c -0.04 1.15 -0.07 2.3 0.01 3.44 c 0.05 0.81 -0.25 0.96 -1 0.96 c -8.58 -0.03 -17.17 -0.02 -25.76 -0.02 c -4.11 0 -8.22 -0.02 -12.32 0.02 c -0.7 0.01 -0.97 -0.15 -0.92 -0.9 c 0.07 -1.11 0.06 -2.22 0 -3.33 c -0.04 -0.72 0.08 -1 0.92 -1.02 c 1.21 -0.02 2.42 -0.14 3.63 -0.37 c 3.98 -0.76 5.17 -2.8 5.19 -6.05 c 0.11 -12.35 0.08 -24.71 0.02 -37.06 c -0.02 -3.7 -2.17 -5.79 -6.01 -6.19 c -0.73 -0.08 -1.47 -0.17 -2.2 -0.22 c -1.53 -0.11 -1.53 -0.1 -1.53 -1.58 c 0 -0.81 0.03 -1.63 -0.01 -2.44 c -0.03 -0.58 0.14 -0.74 0.73 -0.75 c 2.88 -0.01 5.77 -0.06 8.65 -0.12 c 5.69 -0.12 11.38 -0.25 17.06 -0.41 c 0.84 -0.02 0.65 0.48 0.65 0.91 c 0.01 3.88 0 7.77 0 11.65 c 0 0.36 0 0.71 0 1.07 c 0.06 0.02 0.13 0.04 0.19 0.07 c 0.3 -0.63 0.61 -1.27 0.91 -1.9 c 1.92 -3.99 4.22 -7.7 7.82 -10.42 c 5.25 -3.96 12.54 -3.8 17.23 0.35 c 4.89 4.33 4.46 13.12 -0.82 16.53 c -5.49 3.55 -12.37 0.77 -13.68 -5.56 c -0.41 -1.97 -0.15 -3.96 0.15 -5.94 C 592.45 70.26 592.64 70.03 592.31 69.92 c 0.05 0.07 0.09 0.15 0.14 0.23 c 0.02 -0.02 0.05 -0.05 0.07 -0.07 C 592.45 70.02 592.38 69.97 592.31 69.92 z" stroke-linecap="round" />
</g>
		<g transform="matrix(1 0 0 1 -50.28 2.43)" id="Croner-i_1_"  >
<path style="stroke: none; stroke-width: 1; stroke-dasharray: none; stroke-linecap: butt; stroke-dashoffset: 0; stroke-linejoin: miter; stroke-miterlimit: 4; fill: rgb(0,0,0); fill-rule: nonzero; opacity: 1;"  transform=" translate(-319.78, -93.17)" d="M 318.61 77.32 c 1.85 -3.67 3.77 -7.2 6.56 -10.22 c 4.46 -4.83 11.58 -6.32 17.13 -3.4 c 7.37 3.89 7.18 13.35 2.67 17.46 c -3.93 3.59 -13.09 3.32 -14.68 -4.32 c -0.4 -1.91 -0.31 -3.8 -0.01 -5.71 c 0.05 -0.32 0.1 -0.64 0.17 -1.12 c -1.2 0.68 -2 1.59 -2.77 2.51 c -3.12 3.72 -4.76 8.16 -5.94 12.78 c -1.54 6.06 -2.16 12.24 -2.29 18.48 c -0.06 2.88 -0.15 5.75 0.25 8.62 c 0.51 3.69 2.34 5.52 6.03 6.09 c 1.64 0.25 3.3 0.39 4.96 0.41 c 0.65 0.01 0.81 0.21 0.79 0.82 c -0.05 1.14 -0.07 2.3 0 3.44 c 0.05 0.81 -0.27 0.97 -1.01 0.97 c -5.7 -0.03 -11.39 -0.01 -17.09 -0.01 c -6.95 0 -13.91 -0.02 -20.86 0.02 c -0.88 0 -1.15 -0.22 -1.09 -1.1 c 0.08 -1.14 0.05 -2.29 0.01 -3.44 c -0.02 -0.53 0.13 -0.67 0.67 -0.7 c 1.83 -0.11 3.67 -0.18 5.44 -0.8 c 2.11 -0.74 3.17 -2.27 3.53 -4.39 c 0.2 -1.17 0.24 -2.35 0.24 -3.53 c -0.01 -11.2 0 -22.41 -0.03 -33.61 c 0 -0.92 -0.09 -1.85 -0.28 -2.74 c -0.63 -2.81 -2.52 -4.27 -5.83 -4.62 c -0.7 -0.07 -1.39 -0.16 -2.09 -0.22 c -1.64 -0.13 -1.64 -0.13 -1.64 -1.82 c 0 -0.7 0.05 -1.41 -0.01 -2.11 c -0.07 -0.72 0.24 -0.84 0.89 -0.84 c 7.24 -0.1 14.48 -0.22 21.73 -0.35 c 1.22 -0.02 2.44 -0.01 3.65 -0.15 c 0.79 -0.09 0.94 0.13 0.94 0.86 c -0.03 4.07 -0.01 8.14 -0.01 12.2 C 318.61 76.97 318.61 77.14 318.61 77.32 z" stroke-linecap="round" />
</g>
		<g transform="matrix(1 0 0 1 310.33 2.56)" id="Croner-i_1_"  >
<path style="stroke: none; stroke-width: 1; stroke-dasharray: none; stroke-linecap: butt; stroke-dashoffset: 0; stroke-linejoin: miter; stroke-miterlimit: 4; fill: rgb(0,0,0); fill-rule: nonzero; opacity: 1;"  transform=" translate(-680.4, -93.3)" d="M 700.47 118.97 c 0.01 1.77 0.03 3.53 0.04 5.3 c -0.33 0.03 -0.66 0.08 -0.99 0.08 c -12.69 0 -25.38 -0.01 -38.06 0.02 c -0.91 0 -1.24 -0.19 -1.16 -1.14 c 0.09 -1.14 0.06 -2.29 0.01 -3.44 c -0.03 -0.68 0.16 -0.89 0.85 -0.87 c 1.89 0.04 3.76 -0.17 5.58 -0.67 c 2.58 -0.71 3.96 -2.48 4.26 -5.16 c 0.17 -1.55 0.19 -3.09 0.19 -4.64 c 0 -10.8 0.01 -21.59 -0.01 -32.39 c 0 -1.1 -0.1 -2.22 -0.29 -3.3 c -0.48 -2.75 -2.3 -4.14 -4.92 -4.66 c -1.49 -0.3 -2.99 -0.53 -4.5 -0.43 c -0.76 0.05 -0.95 -0.23 -0.91 -0.94 c 0.05 -1.07 0.05 -2.15 0 -3.22 c -0.02 -0.58 0.16 -0.74 0.74 -0.75 c 3.73 -0.04 7.46 -0.13 11.19 -0.2 c 5.65 -0.11 11.3 -0.19 16.95 -0.33 c 0.85 -0.02 1.09 0.19 1.09 1.07 c -0.03 15.75 -0.02 31.5 -0.02 47.26 c 0 1.37 0.11 2.73 0.49 4.05 c 0.68 2.41 2.76 3.85 5.83 4.11 C 698.04 118.81 699.26 118.88 700.47 118.97 z" stroke-linecap="round" />
</g>
		<g transform="matrix(1 0 0 1 263.34 4.6)" id="Croner-i_1_"  >
<path style="stroke: none; stroke-width: 1; stroke-dasharray: none; stroke-linecap: butt; stroke-dashoffset: 0; stroke-linejoin: miter; stroke-miterlimit: 4; fill: rgb(0,0,0); fill-rule: nonzero; opacity: 1;"  transform=" translate(-633.4, -95.34)" d="M 633.51 88.98 c 5.1 0 10.21 0.03 15.31 -0.02 c 0.9 -0.01 1.08 0.26 1.07 1.1 c -0.05 3.55 -0.04 7.1 0 10.65 c 0.01 0.72 -0.1 1.02 -0.94 1.02 c -10.36 -0.03 -20.71 -0.02 -31.07 -0.01 c -0.66 0 -0.98 -0.08 -0.97 -0.88 c 0.05 -3.66 0.04 -7.32 0 -10.98 c -0.01 -0.76 0.25 -0.9 0.94 -0.9 C 623.08 88.99 628.29 88.98 633.51 88.98 z" stroke-linecap="round" />
</g>
		<g transform="matrix(1 0 0 1 309.59 -47.95)" id="Croner-i_1_"  >
<path style="stroke: none; stroke-width: 1; stroke-dasharray: none; stroke-linecap: butt; stroke-dashoffset: 0; stroke-linejoin: miter; stroke-miterlimit: 4; fill: rgb(0,0,0); fill-rule: nonzero; opacity: 1;"  transform=" translate(-679.65, -42.79)" d="M 690.52 42.83 c -0.01 6.06 -4.78 10.81 -10.84 10.82 c -6.08 0 -10.91 -4.84 -10.89 -10.91 c 0.03 -6.04 4.81 -10.8 10.87 -10.81 C 685.79 31.93 690.53 36.69 690.52 42.83 z" stroke-linecap="round" />
</g>
		<g transform="matrix(1 0 0 1 -225.06 -64.62)" id="Croner-i_Logo_2020" clip-path="url(#CLIPPATH_9)"  >
<clipPath id="CLIPPATH_9" >
	<path transform="matrix(1 0 0 1 -37.32 52.76) translate(-107.69, -78.88)" id="App_shape_00000163059800321908490720000005226627403169351826_" d="M 158.47 156.59 H 56.89 c -14.86 0 -26.91 -12.05 -26.91 -26.91 V 28.08 c 0 -14.86 12.05 -26.91 26.91 -26.91 h 101.59 c 14.86 0 26.91 12.05 26.91 26.91 v 101.59 C 185.39 144.54 173.34 156.59 158.47 156.59 z" stroke-linecap="round" />
</clipPath>
<polygon style="stroke: none; stroke-width: 1; stroke-dasharray: none; stroke-linecap: butt; stroke-dashoffset: 0; stroke-linejoin: miter; stroke-miterlimit: 4; fill: rgb(211,26,43); fill-rule: nonzero; opacity: 1;"  points="-37.27,-52.72 -37.28,-52.71 -37.28,52.72 37.28,-21.83 " />
</g>
		<g transform="matrix(1 0 0 1 -262.34 -11.89)" id="Croner-i_Logo_2020" clip-path="url(#CLIPPATH_10)"  >
<clipPath id="CLIPPATH_10" >
	<path transform="matrix(1 0 0 1 -0.04 0.03) translate(-107.69, -78.88)" id="App_shape_00000163059800321908490720000005226627403169351826_" d="M 158.47 156.59 H 56.89 c -14.86 0 -26.91 -12.05 -26.91 -26.91 V 28.08 c 0 -14.86 12.05 -26.91 26.91 -26.91 h 101.59 c 14.86 0 26.91 12.05 26.91 26.91 v 101.59 C 185.39 144.54 173.34 156.59 158.47 156.59 z" stroke-linecap="round" />
</clipPath>
<path style="stroke: none; stroke-width: 1; stroke-dasharray: none; stroke-linecap: butt; stroke-dashoffset: 0; stroke-linejoin: miter; stroke-miterlimit: 4; fill: rgb(32,33,30); fill-rule: nonzero; opacity: 1;"  transform=" translate(-107.72, -78.85)" d="M 107.72 78.85 h 0.01 H 107.72 z" stroke-linecap="round" />
</g>
		<g transform="matrix(1 0 0 1 -299.62 -64.62)" id="Croner-i_Logo_2020" clip-path="url(#CLIPPATH_11)"  >
<clipPath id="CLIPPATH_11" >
	<path transform="matrix(1 0 0 1 37.24 52.76) translate(-107.69, -78.88)" id="App_shape_00000163059800321908490720000005226627403169351826_" d="M 158.47 156.59 H 56.89 c -14.86 0 -26.91 -12.05 -26.91 -26.91 V 28.08 c 0 -14.86 12.05 -26.91 26.91 -26.91 h 101.59 c 14.86 0 26.91 12.05 26.91 26.91 v 101.59 C 185.39 144.54 173.34 156.59 158.47 156.59 z" stroke-linecap="round" />
</clipPath>
<polygon style="stroke: none; stroke-width: 1; stroke-dasharray: none; stroke-linecap: butt; stroke-dashoffset: 0; stroke-linejoin: miter; stroke-miterlimit: 4; fill: rgb(222,157,0); fill-rule: nonzero; opacity: 1;"  points="-37.28,-21.84 -37.28,-21.81 37.27,52.73 37.28,52.72 37.28,-52.72 " />
</g>
		<g transform="matrix(1 0 0 1 -262.33 -11.88)" id="Croner-i_Logo_2020" clip-path="url(#CLIPPATH_12)"  >
<clipPath id="CLIPPATH_12" >
	<path transform="matrix(1 0 0 1 -0.04 0.03) translate(-107.69, -78.88)" id="App_shape_00000163059800321908490720000005226627403169351826_" d="M 158.47 156.59 H 56.89 c -14.86 0 -26.91 -12.05 -26.91 -26.91 V 28.08 c 0 -14.86 12.05 -26.91 26.91 -26.91 h 101.59 c 14.86 0 26.91 12.05 26.91 26.91 v 101.59 C 185.39 144.54 173.34 156.59 158.47 156.59 z" stroke-linecap="round" />
</clipPath>
<path style="stroke: none; stroke-width: 1; stroke-dasharray: none; stroke-linecap: butt; stroke-dashoffset: 0; stroke-linejoin: miter; stroke-miterlimit: 4; fill: rgb(32,33,30); fill-rule: nonzero; opacity: 1;"  transform=" translate(-107.73, -78.85)" d="M 107.73 78.86 v -0.01 V 78.86 z" stroke-linecap="round" />
</g>
		<g transform="matrix(1 0 0 1 -262.34 -11.9)" id="Croner-i_Logo_2020" clip-path="url(#CLIPPATH_13)"  >
<clipPath id="CLIPPATH_13" >
	<path transform="matrix(1 0 0 1 -0.04 0.04) translate(-107.69, -78.88)" id="App_shape_00000163059800321908490720000005226627403169351826_" d="M 158.47 156.59 H 56.89 c -14.86 0 -26.91 -12.05 -26.91 -26.91 V 28.08 c 0 -14.86 12.05 -26.91 26.91 -26.91 h 101.59 c 14.86 0 26.91 12.05 26.91 26.91 v 101.59 C 185.39 144.54 173.34 156.59 158.47 156.59 z" stroke-linecap="round" />
</clipPath>
<polygon style="stroke: none; stroke-width: 1; stroke-dasharray: none; stroke-linecap: butt; stroke-dashoffset: 0; stroke-linejoin: miter; stroke-miterlimit: 4; fill: rgb(32,33,30); fill-rule: nonzero; opacity: 1;"  points="0,0.01 0.01,0.01 0.01,-0.01 " />
</g>
		<g transform="matrix(1 0 0 1 -315.05 -49.16)" id="Croner-i_Logo_2020" clip-path="url(#CLIPPATH_14)"  >
<clipPath id="CLIPPATH_14" >
	<path transform="matrix(1 0 0 1 52.68 37.31) translate(-107.69, -78.88)" id="App_shape_00000163059800321908490720000005226627403169351826_" d="M 158.47 156.59 H 56.89 c -14.86 0 -26.91 -12.05 -26.91 -26.91 V 28.08 c 0 -14.86 12.05 -26.91 26.91 -26.91 h 101.59 c 14.86 0 26.91 12.05 26.91 26.91 v 101.59 C 185.39 144.54 173.34 156.59 158.47 156.59 z" stroke-linecap="round" />
</clipPath>
<polygon style="stroke: none; stroke-width: 1; stroke-dasharray: none; stroke-linecap: butt; stroke-dashoffset: 0; stroke-linejoin: miter; stroke-miterlimit: 4; fill: rgb(249,176,54); fill-rule: nonzero; opacity: 1;"  points="-52.72,37.27 52.71,37.27 52.72,37.27 -21.84,-37.27 " />
</g>
		<g transform="matrix(1 0 0 1 -315.06 25.39)" id="Croner-i_Logo_2020" clip-path="url(#CLIPPATH_15)"  >
<clipPath id="CLIPPATH_15" >
	<path transform="matrix(1 0 0 1 52.68 -37.24) translate(-107.69, -78.88)" id="App_shape_00000163059800321908490720000005226627403169351826_" d="M 158.47 156.59 H 56.89 c -14.86 0 -26.91 -12.05 -26.91 -26.91 V 28.08 c 0 -14.86 12.05 -26.91 26.91 -26.91 h 101.59 c 14.86 0 26.91 12.05 26.91 26.91 v 101.59 C 185.39 144.54 173.34 156.59 158.47 156.59 z" stroke-linecap="round" />
</clipPath>
<polygon style="stroke: none; stroke-width: 1; stroke-dasharray: none; stroke-linecap: butt; stroke-dashoffset: 0; stroke-linejoin: miter; stroke-miterlimit: 4; fill: rgb(0,112,179); fill-rule: nonzero; opacity: 1;"  points="-52.71,-37.28 -21.83,37.28 52.72,-37.28 " />
</g>
		<g transform="matrix(1 0 0 1 -299.62 40.84)" id="Croner-i_Logo_2020" clip-path="url(#CLIPPATH_16)"  >
<clipPath id="CLIPPATH_16" >
	<path transform="matrix(1 0 0 1 37.24 -52.7) translate(-107.69, -78.88)" id="App_shape_00000163059800321908490720000005226627403169351826_" d="M 158.47 156.59 H 56.89 c -14.86 0 -26.91 -12.05 -26.91 -26.91 V 28.08 c 0 -14.86 12.05 -26.91 26.91 -26.91 h 101.59 c 14.86 0 26.91 12.05 26.91 26.91 v 101.59 C 185.39 144.54 173.34 156.59 158.47 156.59 z" stroke-linecap="round" />
</clipPath>
<polygon style="stroke: none; stroke-width: 1; stroke-dasharray: none; stroke-linecap: butt; stroke-dashoffset: 0; stroke-linejoin: miter; stroke-miterlimit: 4; fill: rgb(0,84,146); fill-rule: nonzero; opacity: 1;"  points="37.29,-52.73 37.29,-52.72 37.29,52.73 -37.28,21.85 -37.28,21.82 37.28,-52.73 " />
</g>
		<g transform="matrix(1 0 0 1 -209.6 -49.17)" id="Croner-i_Logo_2020" clip-path="url(#CLIPPATH_17)"  >
<clipPath id="CLIPPATH_17" >
	<path transform="matrix(1 0 0 1 -52.78 37.31) translate(-107.69, -78.88)" id="App_shape_00000163059800321908490720000005226627403169351826_" d="M 158.47 156.59 H 56.89 c -14.86 0 -26.91 -12.05 -26.91 -26.91 V 28.08 c 0 -14.86 12.05 -26.91 26.91 -26.91 h 101.59 c 14.86 0 26.91 12.05 26.91 26.91 v 101.59 C 185.39 144.54 173.34 156.59 158.47 156.59 z" stroke-linecap="round" />
</clipPath>
<polygon style="stroke: none; stroke-width: 1; stroke-dasharray: none; stroke-linecap: butt; stroke-dashoffset: 0; stroke-linejoin: miter; stroke-miterlimit: 4; fill: rgb(168,17,39); fill-rule: nonzero; opacity: 1;"  points="-52.73,37.27 21.83,-37.29 21.84,-37.29 52.73,37.29 -52.73,37.29 " />
</g>
		<g transform="matrix(1 0 0 1 -225.05 40.85)" id="Croner-i_Logo_2020" clip-path="url(#CLIPPATH_18)"  >
<clipPath id="CLIPPATH_18" >
	<path transform="matrix(1 0 0 1 -37.33 -52.71) translate(-107.69, -78.88)" id="App_shape_00000163059800321908490720000005226627403169351826_" d="M 158.47 156.59 H 56.89 c -14.86 0 -26.91 -12.05 -26.91 -26.91 V 28.08 c 0 -14.86 12.05 -26.91 26.91 -26.91 h 101.59 c 14.86 0 26.91 12.05 26.91 26.91 v 101.59 C 185.39 144.54 173.34 156.59 158.47 156.59 z" stroke-linecap="round" />
</clipPath>
<polygon style="stroke: none; stroke-width: 1; stroke-dasharray: none; stroke-linecap: butt; stroke-dashoffset: 0; stroke-linejoin: miter; stroke-miterlimit: 4; fill: rgb(123,33,130); fill-rule: nonzero; opacity: 1;"  points="37.28,21.84 -37.29,52.72 -37.29,-52.72 " />
</g>
		<g transform="matrix(1 0 0 1 -209.6 25.4)" id="Croner-i_Logo_2020" clip-path="url(#CLIPPATH_19)"  >
<clipPath id="CLIPPATH_19" >
	<path transform="matrix(1 0 0 1 -52.78 -37.26) translate(-107.69, -78.88)" id="App_shape_00000163059800321908490720000005226627403169351826_" d="M 158.47 156.59 H 56.89 c -14.86 0 -26.91 -12.05 -26.91 -26.91 V 28.08 c 0 -14.86 12.05 -26.91 26.91 -26.91 h 101.59 c 14.86 0 26.91 12.05 26.91 26.91 v 101.59 C 185.39 144.54 173.34 156.59 158.47 156.59 z" stroke-linecap="round" />
</clipPath>
<polygon style="stroke: none; stroke-width: 1; stroke-dasharray: none; stroke-linecap: butt; stroke-dashoffset: 0; stroke-linejoin: miter; stroke-miterlimit: 4; fill: rgb(112,42,114); fill-rule: nonzero; opacity: 1;"  points="-52.73,-37.29 52.73,-37.29 52.73,-37.28 21.84,37.29 -52.73,-37.28 " />
</g>
</g>
</g>
</svg>